<svg xmlns="http://www.w3.org/2000/svg" viewBox="0 0 1029.1 524.43"><defs><style>.cls-1{fill:#72c4ff;}.cls-2,.cls-3{font-size:493px;font-family:BerlinSansFBDemi-Bold, Berlin Sans FB Demi;font-weight:700;}.cls-2{fill:#0066ed;}.cls-3{fill:#0088ed;}.cls-4{fill:#23ccff;fill-rule:evenodd;}</style></defs><title>Fichier 1</title><g id="Calque_2" data-name="Calque 2"><g id="Calque_1-2" data-name="Calque 1"><path class="cls-1" d="M460.39,356.7c-48.28.89-87.84,3.48-115.6,7.56a147.86,147.86,0,0,0-15.89,3.1c-8.4,2.06-11.64,3.31-14,5.38l-1.38,1.2-14.66-.13c-25.06-.2-54.75.4-74.88,1.55-38.1,2.14-61.23,6.52-64.54,12.22-2.24,3.9,6,8.23,22,11.45,15.27,3.11,31.54,4.61,64.55,5.89,38.41,1.51,45,1.86,49.36,2.76,3.31.68,3.16,1.38-.62,2.3-7.48,1.86-16.89,2.83-38.71,4-31.7,1.66-37.1,2.05-46.27,3.3-2.78.37-6.94,1.16-9.26,1.75-4.31,1.09-9.4,3.22-10.41,4.34-1.46,1.71,2.78,3.32,11.5,4.37,4.62.55,9.25.91,35.55,2.8,18.43,1.32,29,3,33.32,5.29,1.77,1,2.16,1.38,2.08,2.75,0,1.9-1.46,3.16-7.63,6.48-4.55,2.48-8.1,5-10.18,7.4s-1.93,7.7.39,9.92c5.94,5.54,19.05,9.74,39.8,12.72s51.59,4.44,82.75,3.92c52.13-.85,82.67-3.92,94.47-9.46,3.93-1.84,5.39-3.51,5.39-6.06s-1.31-4.46-6.71-9.65c-5.94-5.74-6.63-7.77-3.16-9.42,5.86-2.8,28.45-2.9,70.25-.35,15.2.93,26.15,1.32,32.32,1.13a96,96,0,0,0,17.81-1.81c7.4-1.7,10.64-4.05,12-8.88s2.85-7.85,4.47-9.16c3.08-2.43,8.56-3.9,17-4.51a268.46,268.46,0,0,1,29,.39c22.91,1.61,31.39,1.95,43.5,1.71,30.15-.54,57.14-5.09,71.79-12.1,7.94-3.83,11.18-7.29,10.56-11.3-.92-5.87-11.18-10.4-30.54-13.53-15-2.43-32-3.58-55.76-3.77-29.54-.23-49.9,1.12-86.68,5.81-32.39,4.11-46,5.15-65.24,5a275.28,275.28,0,0,1-29.46-1.64c-8.72-1.08-11-2.39-7.18-4.22,3.94-1.92,11.34-3.65,32.93-7.65,16-3,29.69-6.2,35.4-8.39,18.89-7.21-1.71-12.35-56.31-14.06C504.27,356.74,470,356.52,460.39,356.7Z"/><path class="cls-1" d="M692,368.11c-15.34.66-24.91,2.92-20.66,4.93,2.85,1.35,8.48,1.5,17.19.49,10.65-1.28,17.9-3,17.89-4.36C706.4,368.24,700.08,367.77,692,368.11Z"/><path class="cls-1" d="M599.21,371.11c-5.25.53-9,2-9.64,3.88-.39,1-.15,1.35.93,1.88,1.31.63,1.62.66,5,.64a43.9,43.9,0,0,0,9-.91c12.11-2,14.73-3.83,7.56-5.13A83.89,83.89,0,0,0,599.21,371.11Z"/><path class="cls-1" d="M819.78,403.3c-6.63.74-9.48,2-9.56,4.24-.08,1.46.08,1.62,1.85,2,2.47.49,5.79.36,11.34-.46,6.25-.94,11.49-2.25,12.65-3.16.77-.69.69-.86-.54-1.39C832.58,403.3,825.1,402.73,819.78,403.3Z"/><path class="cls-1" d="M25.14,406.25c-9.8.87-11.49,2-4.32,2.71,5,.54,7.25.52,10-.13,3.16-.71,3.77-1.66,1.54-2.38C30.54,405.88,29.46,405.85,25.14,406.25Z"/><path class="cls-1" d="M111.82,406.2c-.62,0-3.78.17-6.94.29-20.2.8-36.48,2.78-47.73,5.83-13,3.48-15.5,8.08-5.86,10.43,9.41,2.33,27.3,1.74,47.58-1.57l5.17-.84,6.17.39c6.94.44,19,.51,25.68.17A135.3,135.3,0,0,0,157.4,418c6.63-1.64,10.1-3.48,10.18-5.38.08-2.47-4.86-4.22-15.27-5.43-7.17-.83-14.81-1.14-27.92-1.11C118.15,406.14,112.44,406.18,111.82,406.2Z"/><path class="cls-1" d="M6.4,413.32c-2.24.08-6.4,1.11-6.4,1.56,0,.74,5.86,1,10,.47,1.69-.23,2.31-.43,2.31-.81C12.34,413.64,10,413.17,6.4,413.32Z"/><path class="cls-1" d="M69.72,429.3c-2.31.23-5.55,1.24-6.55,2.07a2.53,2.53,0,0,0-.62,2.17c.31,1.2.62,1.52,2.16,1.92,2.39.62,4.4.62,8.72-.06a23.4,23.4,0,0,0,8.32-2.53c2.86-1.56,1.39-2.78-4.09-3.4A34.31,34.31,0,0,0,69.72,429.3Z"/><path class="cls-1" d="M730.57,443.8A92.77,92.77,0,0,0,709,448.28a68.62,68.62,0,0,0-11.34,5.7c-4.09,2.76-8,4.36-14.57,5.82-8,1.81-18,2.69-32.24,2.88s-22.05-.09-67.4-2.43c-5.25-.26-10.8-.39-17.35-.41-9,0-10,0-13.5.46-9.56,1.22-10.18,4.05-2.39,10.21,4.17,3.22,5.25,4.82,5.33,7.37s-1.08,4-4.55,6.19c-3.62,2.4-9.41,4.45-24.6,8.83-11.57,3.33-15.11,4.51-18.81,6.31-7.33,3.61-5.71,8.21,4,11.36,8.41,2.74,17.66,3.89,30.93,3.89,10.79,0,18.5-.54,49.2-3.42,36.94-3.47,57.6-3.74,81-1,15.27,1.74,26.15,4.23,36.48,8.29s18.44,5.81,28.54,6.09c10.8.32,17.12-1,29.77-6.23,3.47-1.46,8.09-3.11,10.1-3.67,9.79-2.72,18.74-2.42,34.78,1.15,24.83,5.52,52.06,6.63,74.11,3.07a101.23,101.23,0,0,0,18-4.6c6.09-2.53,8.4-5.61,6-7.95-3.86-3.66-15.66-5.5-38.18-5.87-14.65-.24-20-.68-24.6-2-6.48-1.82-2.78-4.81,9.87-7.91A180.58,180.58,0,0,1,908.5,486c30.85,2.22,37.25,2.52,51.59,2.42,8.95-.06,11.11-.14,14.5-.52,11.95-1.31,15.35-4.41,9.87-9-4.47-3.76-17.66-6.7-32.93-7.32-7.72-.32-17-.15-37.25.69-14.65.64-18.66.73-29.31.74-10.33,0-13.49-.08-19.28-.43-24-1.5-44.58-6-63.78-13.95-14.12-5.87-22.83-8.81-33.94-11.43A124.74,124.74,0,0,0,730.57,443.8Z"/><path class="cls-1" d="M217.34,468.56c-8.25.65-14.57,1.87-15.73,3-.77.74.39,1.79,2.55,2.28,4.24,1,13.26.42,24.21-1.47,4.86-.86,9.18-2.24,9.18-2.95,0-.24-.77-.61-1.7-.83-1.39-.33-2.7-.38-7.87-.36C224.21,468.22,220,468.35,217.34,468.56Z"/><text class="cls-2" transform="translate(115.58 415.34)">EC </text><text class="cls-3" transform="translate(131.16 417.3) rotate(-0.08) scale(0.98 1)">EC </text><path class="cls-4" d="M864.85,53.91C824.27,99.78,759,142.13,730.76,196.82,676.07,302.68,753.69,427.94,871.9,427.94c114.68,0,192.31-123.5,141.15-227.59C986.58,145.65,917.77,99.78,877.2,53.91,873.67,48.62,868.37,48.62,864.85,53.91Zm72.33,328.16c-60,24.7-128.79,1.76-162.31-54.69-37-61.75-17.65-142.91,44.1-181.73-72.33,30-104.09,116.45-67,185.26C787.22,398,873.67,420.88,937.18,382.07Z"/></g></g></svg>